<svg xmlns="http://www.w3.org/2000/svg" viewBox="0 0 512 512">
  <defs>
    <linearGradient id="tile" x1="0" y1="0" x2="1" y2="1">
      <stop offset="0" stop-color="#12977a"/>
      <stop offset="1" stop-color="#084c3b"/>
    </linearGradient>
    <radialGradient id="halo" cx="0.5" cy="0.6" r="0.58">
      <stop offset="0" stop-color="#ffeeb4" stop-opacity="1"/>
      <stop offset="0.42" stop-color="#f6cd72" stop-opacity="0.5"/>
      <stop offset="1" stop-color="#f4c96a" stop-opacity="0"/>
    </radialGradient>
    <linearGradient id="flame" x1="0" y1="0" x2="0" y2="1">
      <stop offset="0" stop-color="#fff2cf"/>
      <stop offset="0.5" stop-color="#ffd678"/>
      <stop offset="1" stop-color="#e2a63c"/>
    </linearGradient>
  </defs>

  <!-- ~9% transparent margin around the tile (breathing room) -->
  <g transform="translate(46 46) scale(0.8203)">
    <!-- brand tile -->
    <rect width="512" height="512" rx="115" fill="url(#tile)"/>

    <!-- cream niche (outer arch = the مشكاة) -->
    <path fill="#f4ecda" d="M158 410 L158 322 A196 196 0 0 1 256 152.3 A196 196 0 0 1 354 322 L354 410 Z"/>
    <!-- recess (inner arch) -->
    <path fill="#053528" d="M180 410 L180 322 A152 152 0 0 1 256 190.4 A152 152 0 0 1 332 322 L332 410 Z"/>

    <!-- light filling the niche -->
    <ellipse cx="256" cy="318" rx="128" ry="158" fill="url(#halo)"/>

    <!-- suspension line + ring of the lamp -->
    <path d="M256 190 L256 236" stroke="#eccc7d" stroke-width="5" stroke-linecap="round"/>
    <circle cx="256" cy="190" r="7.5" fill="none" stroke="#eccc7d" stroke-width="5"/>

    <!-- مصباح: the flame of light -->
    <path fill="url(#flame)" d="M256 228 C302 274 314 322 289 357 C278 372 267 380 256 380 C245 380 234 372 223 357 C198 322 210 274 256 228 Z"/>
    <path fill="#fff7de" d="M256 286 C280 310 283 340 268 360 C261 369 253 372 256 372 C259 372 251 369 244 360 C229 340 232 310 256 286 Z"/>

    <!-- niche sill -->
    <rect x="146" y="406" width="220" height="20" rx="10" fill="#f4ecda"/>
  </g>
</svg>
